<?xml version="1.0" encoding="UTF-8"?>
<svg id="Layer_1" data-name="Layer 1" xmlns="http://www.w3.org/2000/svg" viewBox="0 0 3050 472.94">
  <defs>
    <style>
      .cls-1 {
        fill: #161a27;
        stroke-width: 0px;
      }

      .cls-2 {
        fill: #fff;
        stroke: #161a27;
        stroke-miterlimit: 10;
        stroke-width: 12px;
      }
    </style>
  </defs>
  <rect id="Border" class="cls-2" x="6" y="6" width="3038" height="460.94" rx="217.59" ry="217.59"/>
  <g>
    <path class="cls-1" d="m406.7,342.97c0,8.3,4.23,12.44,12.68,12.44s15.56-1.59,21.3-4.79l-2.39,54.08c-15.32,12.44-32.55,18.67-51.69,18.67-35.1,0-54.56-12.76-58.39-38.29-15.96,25.53-39.41,38.29-70.36,38.29-52.34,0-78.5-22.5-78.5-67.49,0-7.66.79-16.11,2.39-25.37l10.05-56c5.1-28.72,16.83-51.61,35.18-68.68,18.35-17.07,42.28-25.61,71.79-25.61s49.54,6.87,60.07,20.58l2.39-14.36h72.75l-26.8,150.77c-.32,1.92-.48,3.83-.48,5.74Zm-141.68-22.97c-.64,2.87-.96,6.87-.96,11.97s2.39,10.13,7.18,15.08c4.79,4.95,12.84,7.42,24.17,7.42s21.13-4.46,29.44-13.4l14.36-80.41c-3.52-7.97-11.81-11.97-24.89-11.97-24.57,0-38.93,11.81-43.08,35.42l-6.22,35.9Z"/>
    <path class="cls-1" d="m567.04,423.38c-66.37,0-99.56-22.97-99.56-68.92,0-6.38.64-13.24,1.91-20.58l10.05-59.35c5.1-30.63,19.06-54.09,41.88-70.36,22.81-16.27,51.77-24.57,86.87-24.89,67.97,0,101.95,23.62,101.95,70.84,0,10.22-1.2,19.38-3.59,27.52-2.39,8.14-4.87,13.64-7.42,16.51l-3.83,4.79h-81.37c7.97-7.02,11.97-15.32,11.97-24.89,0-17.23-8.62-25.85-25.85-25.85-10.22,0-18.99,3.04-26.33,9.09-7.34,6.07-12.13,15.32-14.36,27.76l-6.22,34.94c-.64,3.19-.96,6.22-.96,9.09,0,16.92,10.53,25.37,31.59,25.37,7.02,0,13.32-2.23,18.91-6.7,5.58-4.46,8.85-9.41,9.81-14.84l79.45.96c-10.53,59.67-52.17,89.5-124.92,89.5Z"/>
    <path class="cls-1" d="m830.28,423.38c-66.37,0-99.56-22.97-99.56-68.92,0-6.38.64-13.24,1.91-20.58l10.05-59.35c5.1-30.63,19.06-54.09,41.88-70.36,22.81-16.27,51.77-24.57,86.87-24.89,67.97,0,101.95,23.62,101.95,70.84,0,10.22-1.2,19.38-3.59,27.52-2.39,8.14-4.87,13.64-7.42,16.51l-3.83,4.79h-81.37c7.97-7.02,11.97-15.32,11.97-24.89,0-17.23-8.62-25.85-25.85-25.85-10.22,0-18.99,3.04-26.33,9.09-7.34,6.07-12.13,15.32-14.36,27.76l-6.22,34.94c-.64,3.19-.96,6.22-.96,9.09,0,16.92,10.53,25.37,31.59,25.37,7.02,0,13.32-2.23,18.91-6.7,5.58-4.46,8.85-9.41,9.81-14.84l79.45.96c-10.53,59.67-52.17,89.5-124.92,89.5Z"/>
    <path class="cls-1" d="m1093.52,423.38c-66.37,0-99.56-22.97-99.56-68.92,0-6.38.64-13.24,1.91-20.58l10.05-59.35c5.42-30.63,19.54-54.16,42.36-70.6,22.81-16.43,53.05-24.65,90.7-24.65,64.14,0,96.2,24.25,96.2,72.75,0,7.02-.64,14.68-1.91,22.97l-5.74,33.98h-145.98l-1.91,11.01c-.64,3.83-.96,7.34-.96,10.53,0,17.55,10.37,26.32,31.11,26.32,7.66,0,14.19-2.39,19.62-7.18,5.42-4.79,8.62-10.37,9.57-16.75l79.45.96c-10.53,59.67-52.17,89.5-124.92,89.5Zm57.44-143.59c1.27-5.42,1.91-10.45,1.91-15.08s-2.08-9.33-6.22-14.12c-4.15-4.79-10.77-7.18-19.86-7.18s-17.4,3.04-24.89,9.09c-7.5,6.07-12.68,15.16-15.56,27.28h64.62Z"/>
    <path class="cls-1" d="m1500.35,236.23c0,10.53-3.19,20.27-9.57,29.2h-78.5c2.55-1.91,3.83-5.1,3.83-9.57s-2.56-8.05-7.66-10.77c-5.11-2.71-11.65-4.07-19.62-4.07-23.93,0-35.9,7.34-35.9,22.02,0,5.74,4.46,9.89,13.4,12.44,8.93,2.56,19.78,4.63,32.55,6.22,12.76,1.6,25.52,3.91,38.29,6.94,12.76,3.04,23.61,9.02,32.55,17.95,8.93,8.94,13.4,20.9,13.4,35.9,0,26.49-10.61,46.59-31.83,60.31-21.22,13.72-52.1,20.58-92.62,20.58s-68.92-6.54-85.2-19.62c-12.77-10.21-19.15-24.25-19.15-42.12,0-5.1.48-10.37,1.44-15.79l79.93-.96c-.64,4.47,1.99,8.38,7.9,11.73,5.9,3.35,14.6,5.03,26.09,5.03s19.78-1.2,24.89-3.59c5.1-2.39,7.66-6.94,7.66-13.64,0-4.46-4.47-7.58-13.4-9.33-8.94-1.75-19.86-3.27-32.79-4.55-12.92-1.27-25.85-3.35-38.77-6.22-12.92-2.87-23.86-8.93-32.79-18.19-8.94-9.25-13.4-21.37-13.4-36.38,0-29.03,11.25-51.37,33.74-67.01,22.5-15.63,54.96-23.45,97.4-23.45,65.41,0,98.12,18.99,98.12,56.96Z"/>
    <path class="cls-1" d="m1763.12,236.23c0,10.53-3.19,20.27-9.57,29.2h-78.5c2.55-1.91,3.83-5.1,3.83-9.57s-2.56-8.05-7.66-10.77c-5.11-2.71-11.65-4.07-19.62-4.07-23.93,0-35.9,7.34-35.9,22.02,0,5.74,4.46,9.89,13.4,12.44,8.93,2.56,19.78,4.63,32.55,6.22,12.76,1.6,25.52,3.91,38.29,6.94,12.76,3.04,23.61,9.02,32.55,17.95,8.93,8.94,13.4,20.9,13.4,35.9,0,26.49-10.61,46.59-31.83,60.31-21.22,13.72-52.1,20.58-92.62,20.58s-68.92-6.54-85.2-19.62c-12.77-10.21-19.14-24.25-19.14-42.12,0-5.1.48-10.37,1.44-15.79l79.93-.96c-.64,4.47,1.99,8.38,7.9,11.73,5.9,3.35,14.6,5.03,26.09,5.03s19.78-1.2,24.89-3.59c5.1-2.39,7.66-6.94,7.66-13.64,0-4.46-4.47-7.58-13.4-9.33-8.94-1.75-19.86-3.27-32.79-4.55-12.92-1.27-25.85-3.35-38.77-6.22-12.92-2.87-23.86-8.93-32.79-18.19-8.94-9.25-13.4-21.37-13.4-36.38,0-29.03,11.25-51.37,33.74-67.01,22.5-15.63,54.96-23.45,97.4-23.45,65.41,0,98.12,18.99,98.12,56.96Z"/>
    <path class="cls-1" d="m1887.56,355.41c7.34,0,13.88-1.59,19.62-4.79l-2.39,54.08c-15,12.44-32.07,18.67-51.21,18.67-29.04,0-47.86-6.7-56.48-20.1-5.74-8.93-8.62-18.43-8.62-28.48s.64-18.91,1.92-26.56l28.72-161.78h81.37l-26.8,150.77c-.32,1.92-.48,3.67-.48,5.27,0,8.62,4.79,12.92,14.36,12.92Zm-58.87-246.97c0-20.42,4.55-35.34,13.64-44.75,9.09-9.41,23.21-14.12,42.36-14.12,26.8,0,40.21,11.81,40.21,35.42,0,20.1-4.55,34.78-13.64,44.03-9.09,9.26-23.38,13.88-42.84,13.88-26.49,0-39.73-11.49-39.73-34.46Z"/>
    <path class="cls-1" d="m2100.55,179.75c31.59,0,53.76,8.78,66.53,26.33,9.57,12.44,14.36,27.6,14.36,45.47,0,7.34-.8,15-2.39,22.97l-9.57,53.61c-5.43,30.63-19.55,54.17-42.36,70.6-22.82,16.44-51.54,24.65-86.15,24.65s-61.19-6.86-79.69-20.58c-14.68-10.84-22.02-26-22.02-45.47,0-5.1.48-10.37,1.44-15.79l50.73-288.14h81.37l-24.41,139.28c13.4-8.62,30.79-12.92,52.17-12.92Zm-4.31,101.95c.31-2.55.48-6.14.48-10.77s-2-9.57-5.98-14.84c-3.99-5.26-12.61-7.9-25.85-7.9s-22.73,3.99-28.48,11.97l-13.88,79.93c3.83,9.57,11.8,14.36,23.93,14.36,24.57,0,39.08-12.28,43.56-36.86l6.22-35.9Z"/>
    <path class="cls-1" d="m2305.88,423.38c-66.37,0-99.56-22.97-99.56-68.92,0-6.38.64-13.24,1.91-20.58l10.05-59.35c5.42-30.63,19.54-54.16,42.36-70.6,22.81-16.43,53.05-24.65,90.7-24.65,64.14,0,96.21,24.25,96.21,72.75,0,7.02-.64,14.68-1.92,22.97l-5.74,33.98h-145.98l-1.92,11.01c-.64,3.83-.96,7.34-.96,10.53,0,17.55,10.37,26.32,31.11,26.32,7.66,0,14.19-2.39,19.62-7.18,5.42-4.79,8.62-10.37,9.57-16.75l79.45.96c-10.53,59.67-52.17,89.5-124.92,89.5Zm57.44-143.59c1.27-5.42,1.91-10.45,1.91-15.08s-2.08-9.33-6.22-14.12c-4.15-4.79-10.77-7.18-19.86-7.18s-17.4,3.04-24.89,9.09c-7.5,6.07-12.68,15.16-15.56,27.28h64.62Z"/>
    <path class="cls-1" d="m2562.42,342.97c0,8.3,4.23,12.44,12.68,12.44s15.56-1.59,21.3-4.79l-2.39,54.08c-15.32,12.44-32.55,18.67-51.69,18.67-29.04,0-47.86-6.7-56.48-20.1-5.43-8.62-8.14-18.02-8.14-28.24s.64-19.15,1.91-26.8l52.17-294.84h81.37l-50.26,283.83c-.32,1.92-.48,3.83-.48,5.74Z"/>
    <path class="cls-1" d="m2865.38,236.23c0,10.53-3.19,20.27-9.57,29.2h-78.5c2.55-1.91,3.83-5.1,3.83-9.57s-2.56-8.05-7.66-10.77c-5.11-2.71-11.65-4.07-19.62-4.07-23.93,0-35.9,7.34-35.9,22.02,0,5.74,4.46,9.89,13.4,12.44,8.93,2.56,19.78,4.63,32.55,6.22,12.76,1.6,25.52,3.91,38.29,6.94,12.76,3.04,23.61,9.02,32.55,17.95,8.93,8.94,13.4,20.9,13.4,35.9,0,26.49-10.61,46.59-31.83,60.31-21.22,13.72-52.1,20.58-92.62,20.58s-68.92-6.54-85.2-19.62c-12.77-10.21-19.15-24.25-19.15-42.12,0-5.1.48-10.37,1.44-15.79l79.93-.96c-.64,4.47,1.99,8.38,7.9,11.73,5.9,3.35,14.6,5.03,26.09,5.03s19.78-1.2,24.89-3.59c5.1-2.39,7.66-6.94,7.66-13.64,0-4.46-4.47-7.58-13.4-9.33-8.94-1.75-19.86-3.27-32.79-4.55-12.92-1.27-25.85-3.35-38.77-6.22-12.92-2.87-23.86-8.93-32.79-18.19-8.94-9.25-13.4-21.37-13.4-36.38,0-29.03,11.25-51.37,33.74-67.01,22.5-15.63,54.96-23.45,97.4-23.45,65.41,0,98.12,18.99,98.12,56.96Z"/>
  </g>
</svg>