<?xml version="1.0" encoding="UTF-8"?>
<svg id="Top" xmlns="http://www.w3.org/2000/svg" viewBox="0 0 1002 1002">
  <defs>
    <style>
      .cls-1 {
        stroke: #050609;
      }

      .cls-1, .cls-2 {
        fill: #161a27;
      }

      .cls-1, .cls-2, .cls-3 {
        stroke-miterlimit: 10;
      }

      .cls-4 {
        fill: #ff70db;
      }

      .cls-4, .cls-5 {
        stroke-width: 0px;
      }

      .cls-2, .cls-3 {
        stroke: #161a27;
      }

      .cls-3 {
        fill: #fff;
        stroke-width: 12px;
      }

      .cls-5 {
        fill: #d81e5b;
      }
    </style>
  </defs>
  <rect id="Border" class="cls-3" x="6" y="6" width="990" height="990" rx="217.59" ry="217.59"/>
  <g id="Left_Right" data-name="Left Right">
    <g id="Right">
      <circle id="Right-2" data-name="Right" class="cls-3" cx="779.8" cy="501" r="178.46"/>
      <path class="cls-2" d="m815.15,435.11c26.07,0,44.37,7.25,54.9,21.72,7.9,10.27,11.85,22.78,11.85,37.53,0,6.06-.66,12.38-1.98,18.96l-7.9,44.24c-4.48,25.28-16.13,44.7-34.96,58.26-18.83,13.57-42.53,20.34-71.1,20.34s-50.5-5.66-65.77-16.98c-12.12-8.95-18.17-21.46-18.17-37.52,0-4.21.4-8.55,1.19-13.04l41.87-237.79,64.41-10.33-17.4,125.28c11.06-7.11,25.41-10.66,43.05-10.66Zm-3.55,84.14c.26-2.1.39-5.07.39-8.89s-1.65-7.9-4.94-12.25c-3.3-4.35-10.41-6.52-21.33-6.52s-18.76,3.3-23.5,9.88l-11.46,65.97c3.16,7.9,9.74,11.85,19.75,11.85,20.27,0,32.25-10.13,35.94-30.42l5.14-29.63Z"/>
    </g>
    <g id="Left">
      <circle id="Left-2" data-name="Left" class="cls-3" cx="221.34" cy="501" r="178.46"/>
      <path class="cls-5" d="m155.98,566.17v-130.33c0-4.81,3.9-8.71,8.71-8.71h7.57c4.81,0,8.71,3.9,8.71,8.71v130.33c0,4.81-3.9,8.71-8.71,8.71h-7.57c-4.81,0-8.71-3.9-8.71-8.71Zm49.98,49.25v-228.83c0-4.81,3.9-8.71,8.71-8.71h7.57c4.81,0,8.71,3.9,8.71,8.71v228.83c0,4.81-3.9,8.71-8.71,8.71h-7.57c-4.81,0-8.71-3.9-8.71-8.71Zm-99.96-98.5v-31.83c0-4.81,3.9-8.71,8.71-8.71h7.57c4.81,0,8.71,3.9,8.71,8.71v31.83c0,4.81-3.9,8.71-8.71,8.71h-7.57c-4.81,0-8.71-3.9-8.71-8.71Zm149.94,49.25v-130.33c0-4.81,3.9-8.71,8.71-8.71h7.57c4.81,0,8.71,3.9,8.71,8.71v130.33c0,4.81-3.9,8.71-8.71,8.71h-7.57c-4.81,0-8.71-3.9-8.71-8.71Zm49.98-49.25v-31.83c0-4.81,3.9-8.71,8.71-8.71h7.57c4.81,0,8.71,3.9,8.71,8.71v31.83c0,4.81-3.9,8.71-8.71,8.71h-7.57c-4.81,0-8.71-3.9-8.71-8.71Z"/>
    </g>
  </g>
  <g id="Up_Down" data-name="Up Down">
    <g id="Up">
      <circle id="Up-2" data-name="Up" class="cls-3" cx="501" cy="221.44" r="178.46"/>
      <path class="cls-4" d="m628.66,251.58l-9.3-65.07c-5.74-40.2-40.7-70.51-81.29-70.51h-74.12c-40.61,0-75.55,30.31-81.3,70.51l-9.3,65.07c-.14.96-.09,2.9-.09,3.96,0,23.69,19.27,42.96,42.96,42.96,16.38,0,31.11-9.1,38.43-23.75l15.5-31h61.72l15.5,31c7.32,14.65,22.05,23.75,38.43,23.75,23.69,0,42.96-19.27,42.96-42.96,0-1.06.05-3-.09-3.96Zm-72.91-108.2c6.72,0,12.16,5.45,12.16,12.16s-5.45,12.16-12.16,12.16-12.16-5.45-12.16-12.16,5.45-12.16,12.16-12.16Zm-82.12,45.62h-18.25v18.25h-18.25v-18.25h-18.25v-18.25h18.25v-18.25h18.25v18.25h18.25v18.25Zm57.79,3.04c-6.72,0-12.16-5.45-12.16-12.16s5.45-12.16,12.16-12.16,12.16,5.45,12.16,12.16c0,6.72-5.44,12.16-12.16,12.16Zm24.34,24.34c-6.72,0-12.16-5.45-12.16-12.16s5.45-12.16,12.16-12.16,12.16,5.45,12.16,12.16-5.45,12.16-12.16,12.16Zm24.34-24.34c-6.72,0-12.16-5.45-12.16-12.16s5.45-12.16,12.16-12.16,12.16,5.45,12.16,12.16-5.45,12.16-12.16,12.16Z"/>
    </g>
    <g id="Down">
      <circle id="Right-3" data-name="Right" class="cls-3" cx="501" cy="779.9" r="178.46"/>
      <path class="cls-1" d="m580.79,813.87c0,6.85,3.49,10.27,10.47,10.27s12.84-1.31,17.58-3.95l-1.98,44.64c-12.64,10.27-26.86,15.41-42.66,15.41-28.97,0-45.03-10.53-48.19-31.6-13.17,21.07-32.53,31.6-58.07,31.6-43.19,0-64.78-18.56-64.78-55.69,0-6.32.65-13.29,1.98-20.94l8.29-46.21c4.21-23.7,13.89-42.59,29.03-56.68,15.14-14.08,34.89-21.13,59.25-21.13s40.88,5.67,49.57,16.98l1.98-11.85h60.04l-22.12,124.43c-.26,1.58-.39,3.16-.39,4.74Zm-116.92-18.96c-.53,2.37-.79,5.67-.79,9.88s1.98,8.36,5.93,12.44c3.95,4.09,10.6,6.12,19.95,6.12s17.44-3.68,24.29-11.06l11.85-66.36c-2.9-6.58-9.75-9.88-20.54-9.88-20.28,0-32.13,9.74-35.55,29.23l-5.13,29.63Z"/>
    </g>
  </g>
</svg>